<mxfile host="app.diagrams.net" agent="Mozilla/5.0 (Windows NT 10.0; Win64; x64) AppleWebKit/537.36 (KHTML, like Gecko) Chrome/119.0.0.0 Safari/537.36" version="26.0.1">
  <diagram id="6a731a19-8d31-9384-78a2-239565b7b9f0" name="Page-1">
    <mxGraphModel dx="1434" dy="780" grid="1" gridSize="10" guides="1" tooltips="1" connect="1" arrows="1" fold="1" page="1" pageScale="1" pageWidth="1169" pageHeight="827" background="none" math="0" shadow="0">
      <root>
        <mxCell id="0" />
        <mxCell id="1" parent="0" />
        <mxCell id="o0vIgVdxRqHnW3IHY1vi-1782" value="Full Stack Developer in 2024" style="text;html=1;align=center;verticalAlign=middle;resizable=0;points=[];autosize=1;strokeColor=none;fillColor=none;fontFamily=Verdana;fontSize=18;fontColor=light-dark(#4d4d4d, #ededed);" vertex="1" parent="1">
          <mxGeometry x="445" y="18" width="280" height="40" as="geometry" />
        </mxCell>
        <mxCell id="o0vIgVdxRqHnW3IHY1vi-1783" value="Legends" style="text;html=1;align=center;verticalAlign=middle;resizable=0;points=[];autosize=1;strokeColor=none;fillColor=none;fontSize=16;" vertex="1" parent="1">
          <mxGeometry x="870" y="40" width="80" height="30" as="geometry" />
        </mxCell>
        <mxCell id="o0vIgVdxRqHnW3IHY1vi-1784" value="Personal must know" style="whiteSpace=wrap;html=1;fillColor=#FFFF66;gradientColor=none;" vertex="1" parent="1">
          <mxGeometry x="880" y="80" width="160" height="40" as="geometry" />
        </mxCell>
        <mxCell id="o0vIgVdxRqHnW3IHY1vi-1785" value="Good to know" style="whiteSpace=wrap;html=1;fillColor=#FFCC99;strokeColor=default;" vertex="1" parent="1">
          <mxGeometry x="880" y="140" width="160" height="40" as="geometry" />
        </mxCell>
        <mxCell id="o0vIgVdxRqHnW3IHY1vi-1786" value="Possibilities" style="whiteSpace=wrap;html=1;strokeColor=default;fillColor=#CCCCCC;" vertex="1" parent="1">
          <mxGeometry x="880" y="200" width="160" height="40" as="geometry" />
        </mxCell>
      </root>
    </mxGraphModel>
  </diagram>
</mxfile>
